<svg width="165" height="168" viewBox="0 0 165 168" fill="none" xmlns="http://www.w3.org/2000/svg">
<path fill-rule="evenodd" clip-rule="evenodd" d="M39.5198 30.6865C39.5198 30.6865 65.9769 50.0375 72.4433 62.9721C72.0966 59.04 74.9737 44.7505 89.2557 19.0494C87.3937 19.0551 85.179 20.0033 83.1145 22.2063C81.962 23.4361 81.5123 24.2335 80.362 26.2734C79.4517 27.8875 78.1027 30.2796 75.6196 34.2796C69.9985 43.3347 65.8525 42.1548 57.9944 37.9736C55.081 36.4234 53.0141 35.2071 51.3809 34.246C48.6087 32.6147 47.0857 31.7185 44.7934 31.1725C42.4307 30.6098 41.7807 30.6524 41.0538 30.7001C40.66 30.7259 40.2435 30.7532 39.5198 30.6865ZM61.6895 35.3889C65.3013 37.6311 70.0468 36.5207 72.289 32.9089C74.5311 29.2971 73.4207 24.5516 69.8089 22.3094C66.1971 20.0673 61.4516 21.1777 59.2095 24.7895C56.9674 28.4013 58.0777 33.1468 61.6895 35.3889Z" fill="#9400D3"/>
<path fill-rule="evenodd" clip-rule="evenodd" d="M96.0538 20.3199C96.0538 20.3199 97.3429 53.0733 91.2308 66.1791C94.0953 63.4631 107.077 56.8339 136.087 52.0442C134.925 50.5893 132.805 49.4439 129.797 49.1962C128.117 49.058 127.213 49.2014 124.9 49.5684C123.069 49.8588 120.357 50.2892 115.68 50.8307C105.093 52.0566 103.44 48.0756 101.83 39.3211C101.234 36.0754 100.901 33.7003 100.639 31.8235C100.193 28.638 99.9487 26.8879 98.9513 24.7529C97.9233 22.5524 97.486 22.0698 96.9968 21.53C96.7317 21.2375 96.4514 20.9283 96.0538 20.3199ZM106.152 40.6089C106.641 44.8319 110.461 47.8588 114.683 47.3699C118.906 46.8809 121.933 43.0611 121.444 38.8382C120.955 34.6153 117.136 31.5883 112.913 32.0773C108.69 32.5663 105.663 36.386 106.152 40.6089Z" fill="#4B0082"/>
<path fill-rule="evenodd" clip-rule="evenodd" d="M141.239 58.2305C141.239 58.2305 114.365 76.9984 100.033 78.9291C103.866 79.8741 116.454 87.2222 136.148 109.055C136.745 107.292 136.565 104.889 135.149 102.223C134.359 100.734 133.75 100.051 132.192 98.3019C130.96 96.9181 129.133 94.8674 126.152 91.2231C119.405 82.9733 121.863 79.4325 128.363 73.3512C130.773 71.0965 132.593 69.5347 134.031 68.3005C136.472 66.2057 137.813 65.0549 139.071 63.0627C140.369 61.0094 140.539 60.3807 140.729 59.6775C140.832 59.2965 140.941 58.8937 141.239 58.2305ZM129.612 77.684C126.322 80.3754 125.836 85.2249 128.527 88.5155C131.219 91.8061 136.068 92.2918 139.359 89.6004C142.649 86.9089 143.135 82.0595 140.444 78.7688C137.752 75.4782 132.903 74.9925 129.612 77.684Z" fill="#0000FF"/>
<path fill-rule="evenodd" clip-rule="evenodd" d="M135.396 113.37C135.396 113.37 102.827 109.66 90.8043 101.625C93.0527 104.87 97.6295 118.709 97.9489 148.11C99.5638 147.183 101.018 145.262 101.721 142.326C102.113 140.687 102.109 139.771 102.098 137.43C102.09 135.577 102.077 132.83 102.254 128.126C102.653 117.475 106.839 116.447 115.737 116.188C119.035 116.092 121.433 116.125 123.328 116.152C126.544 116.196 128.311 116.22 130.573 115.56C132.905 114.878 133.448 114.52 134.056 114.118C134.385 113.901 134.734 113.671 135.396 113.37ZM113.806 120.263C109.558 120.104 105.985 123.419 105.826 127.667C105.667 131.915 108.981 135.488 113.229 135.647C117.477 135.807 121.05 132.492 121.21 128.244C121.369 123.996 118.054 120.423 113.806 120.263Z" fill="#00FF00"/>
<path fill-rule="evenodd" clip-rule="evenodd" d="M89.5133 149.82C89.5133 149.82 75.5977 120.142 76.1365 105.691C74.5525 109.307 65.1674 120.46 40.2985 136.146C41.9345 137.035 44.3325 137.267 47.2013 136.326C48.8028 135.8 49.5801 135.317 51.5686 134.08C53.1422 133.101 55.4741 131.651 59.5729 129.334C68.8516 124.091 71.9218 127.116 76.807 134.557C78.6182 137.316 79.8472 139.375 80.8183 141.003C82.4667 143.765 83.3723 145.282 85.1209 146.862C86.9232 148.49 87.5138 148.764 88.1743 149.072C88.5321 149.238 88.9105 149.414 89.5133 149.82ZM72.3247 135.05C70.2332 131.349 65.5373 130.044 61.8363 132.136C58.1353 134.227 56.8306 138.923 58.9222 142.624C61.0137 146.325 65.7095 147.63 69.4106 145.538C73.1116 143.447 74.4163 138.751 72.3247 135.05Z" fill="#FFFF00"/>
<path fill-rule="evenodd" clip-rule="evenodd" d="M34.0102 134.553C34.0102 134.553 48.6732 105.237 60.3469 96.7024C56.5278 97.7007 41.9586 97.2493 14.234 87.458C14.5504 89.2929 15.855 91.3182 18.3717 92.986C19.7767 93.9171 20.6379 94.2273 22.8412 95.021C24.5846 95.649 27.1684 96.5798 31.5268 98.3603C41.3931 102.391 40.9218 106.676 38.111 115.122C37.069 118.253 36.2148 120.494 35.5398 122.265C34.3941 125.27 33.7647 126.921 33.6091 129.273C33.4487 131.696 33.5992 132.33 33.7675 133.039C33.8587 133.423 33.9551 133.829 34.0102 134.553ZM34.946 111.91C36.5537 107.974 34.6668 103.481 30.7314 101.873C26.796 100.265 22.3024 102.152 20.6946 106.088C19.0869 110.023 20.9738 114.517 24.9092 116.124C28.8446 117.732 33.3382 115.845 34.946 111.91Z" fill="#FF7F00"/>
<path fill-rule="evenodd" clip-rule="evenodd" d="M9.54634 79.2766C9.54634 79.2766 42.0079 74.7278 55.6578 79.5025C52.6698 76.9231 44.779 64.6673 37.1204 36.2795C35.7886 37.5807 34.8603 39.8038 34.9139 42.8225C34.9438 44.5077 35.1767 45.393 35.7726 47.6578C36.244 49.45 36.9427 52.1059 37.9479 56.7054C40.2235 67.1175 36.4271 69.1593 27.8768 71.6341C24.7068 72.5515 22.3766 73.1189 20.5353 73.5672C17.4101 74.3281 15.6932 74.7461 13.6683 75.9514C11.5812 77.1937 11.1446 77.677 10.6563 78.2176C10.3918 78.5105 10.112 78.8202 9.54634 79.2766ZM28.7272 67.2056C32.8803 66.298 35.5113 62.1954 34.6036 58.0423C33.696 53.8892 29.5934 51.2582 25.4403 52.1658C21.2872 53.0735 18.6562 57.176 19.5638 61.3292C20.4715 65.4823 24.574 68.1132 28.7272 67.2056Z" fill="#FF0000"/>
</svg>
