<svg width="1500" height="380" viewBox="0 0 1500 380" fill="none" xmlns="http://www.w3.org/2000/svg">
<path d="M0 290.5H3.75V287.12H7.5V283.75H13.87V288.62H18.75V299.12H35.62V274H39.37V277.37H43.87V268H111.37V279.62H115.5V274.75H129.75V277H135.37V298H145.87V293.5H162.37V296.87H175.5V292H182.62V268.37H184.5V292.37H192V296.25H195.25V292H204.75V296.75H211.75V294.25H214.75V297.5H221.5V294.25H225V297.5H243.75V292.5H246V287H250.75V283.75H262.5V269.75H267.75V266.5H271V270.25H285.5V276.5H290.25V274H296.75V278.75H306.75V286.75H314.25V315H334.75V306.25H341.25V302.5H344.5V306.5H380.5V313.5H397.25V303.75H408.5V298H420V303.75H425V296.5H438.25V305.25H441V292.5H444.5V289.75H448V292.25H451.75V288.25H457.75V221.75H473.25V213.75H487.75V221.75H500.25V304.75H504.75V293.5H517.12V283H519.37V294.25H522.75V305.87H531.75V279.62H546V289.37H547.5V279.62H552V275.12H565.87V269.12H575.25V280H580.5V293.5H585.37V282.25H590.62V278.12H602.25V269.87H622.87V211.75H635.25V204.62H678V210.62H690V213.62H687V216.62H690.37V220.19H687.37V223.75H690.75V228.44H686.62V248.69H690.75V284.75H701.75V251.5H697V249H703V232.75H709.25V236.5H714.25V231.25H716.5V235.5H735.75V232.25H744.75V247.25H751.25V254.12H798.37V244.75H887.25V321.62H912.75V113L906.56 97.75H913.69V64.75H917.06V54.25H921.19V46H924.56L927 39.62V0.440002H929.62V39.62L932.44 46.56H936V53.87H940.31V63.62H944.06V97.19H952.69L946.31 111.06V287.87H965.25V277H979.87V283.37H992.62V277.75H985.12V271.37H1005.37V265.37H1013.25V261.62H1017.75V256H1046.25V278.5H1071.75V270.25H1090.5V291.25H1104.75V274.75H1118.25V286.75H1179V277.75H1216.5V293.5H1235.25V284.5H1263V296.5H1279.5V286.5H1292V280.5H1312V287.5H1324.5V295H1340.5V277H1351.5L1364 112.5L1376 267.5H1386V279H1392V272H1406V281H1427V274.5H1434.5V290.5H1442.5V281.5H1451.5V285.5H1460V279.5H1465V285H1483V279.5H1500V380H0C0 319.83 0 290 0 290.5Z" fill="#EF7A00"/>
</svg>
