<svg width="52" height="50" viewBox="0 0 52 50" fill="none" xmlns="http://www.w3.org/2000/svg">
<path d="M50.9757 0.969971C50.9458 0.459961 50.5357 0.0599365 50.0258 0.0299072C50.0258 0.0299072 49.5858 0 48.7857 0C44.9857 0 31.9558 0.630005 23.8358 8.75989C21.2857 11.2999 19.0558 14.11 17.3158 16.91C16.0258 16.25 14.5858 15.89 13.1458 15.89C10.8058 15.89 8.58578 16.8199 6.89578 18.5199L1.28573 24.12C1.00576 24.4 0.915737 24.83 1.07577 25.21C1.22573 25.58 1.59573 25.83 1.99575 25.83H13.4857C12.5758 30 13.2357 33.4399 15.3958 35.6C17.5357 37.74 21.0357 38.42 25.1757 37.5099V49C25.1757 49.4 25.4157 49.7699 25.7857 49.92C25.9157 49.98 26.0457 50 26.1757 50C26.4358 50 26.6858 49.9 26.8758 49.71L32.4857 44.11C35.2957 41.2899 35.8958 37.13 34.0957 33.6801C36.8958 31.9399 39.6958 29.71 42.2458 27.16C51.7957 17.61 51.0058 1.64001 50.9757 0.969971ZM40.5758 17.58C39.6258 18.5299 38.3557 19.0599 36.9958 19.0599C35.6458 19.0599 34.3758 18.5299 33.4157 17.58C32.4658 16.62 31.9358 15.35 31.9358 14C31.9358 12.65 32.4658 11.37 33.4157 10.42C34.3758 9.45996 35.6458 8.93005 36.9958 8.93005C38.3557 8.93005 39.6258 9.45996 40.5758 10.42C42.5558 12.39 42.5558 15.6 40.5758 17.58Z" fill="#0000FF"/>
</svg>
